<svg xmlns="http://www.w3.org/2000/svg" viewBox="0 0 36 39"><rect width="100%" height="100%" fill="#ffffff"/><rect x="0" y="0" width="36" height="39" fill="#111111"/><rect x="1.5" y="1.5" width="33" height="33" fill="#ffffff"/><text x="18" y="36.36" fill="#ffffff" font-size="1.26" text-anchor="middle" font-family="sans-serif">ESCANÉAME</text><rect x="13.5" y="5.5" width="1" height="1" fill="#111111"/><rect x="17.5" y="5.5" width="1" height="1" fill="#111111"/><rect x="19.5" y="5.5" width="1" height="1" fill="#111111"/><rect x="17.5" y="6.5" width="1" height="1" fill="#111111"/><rect x="18.5" y="6.5" width="1" height="1" fill="#111111"/><rect x="19.5" y="6.5" width="1" height="1" fill="#111111"/><rect x="21.5" y="6.5" width="1" height="1" fill="#111111"/><rect x="13.5" y="7.5" width="1" height="1" fill="#111111"/><rect x="15.5" y="7.5" width="1" height="1" fill="#111111"/><rect x="17.5" y="7.5" width="1" height="1" fill="#111111"/><rect x="18.5" y="7.5" width="1" height="1" fill="#111111"/><rect x="21.5" y="7.5" width="1" height="1" fill="#111111"/><rect x="14.5" y="8.5" width="1" height="1" fill="#111111"/><rect x="16.5" y="8.5" width="1" height="1" fill="#111111"/><rect x="18.5" y="8.5" width="1" height="1" fill="#111111"/><rect x="19.5" y="8.5" width="1" height="1" fill="#111111"/><rect x="15.5" y="9.5" width="1" height="1" fill="#111111"/><rect x="16.5" y="9.5" width="1" height="1" fill="#111111"/><rect x="17.5" y="9.5" width="1" height="1" fill="#111111"/><rect x="19.5" y="9.5" width="1" height="1" fill="#111111"/><rect x="13.5" y="10.5" width="1" height="1" fill="#111111"/><rect x="14.5" y="10.5" width="1" height="1" fill="#111111"/><rect x="15.5" y="10.5" width="1" height="1" fill="#111111"/><rect x="17.5" y="10.5" width="1" height="1" fill="#111111"/><rect x="19.5" y="10.5" width="1" height="1" fill="#111111"/><rect x="13.5" y="11.5" width="1" height="1" fill="#111111"/><rect x="15.5" y="11.5" width="1" height="1" fill="#111111"/><rect x="17.5" y="11.5" width="1" height="1" fill="#111111"/><rect x="19.5" y="11.5" width="1" height="1" fill="#111111"/><rect x="21.5" y="11.5" width="1" height="1" fill="#111111"/><rect x="14.5" y="12.5" width="1" height="1" fill="#111111"/><rect x="15.5" y="12.5" width="1" height="1" fill="#111111"/><rect x="17.5" y="12.5" width="1" height="1" fill="#111111"/><rect x="19.5" y="12.5" width="1" height="1" fill="#111111"/><rect x="20.5" y="12.5" width="1" height="1" fill="#111111"/><rect x="21.5" y="12.5" width="1" height="1" fill="#111111"/><rect x="5.5" y="13.5" width="1" height="1" fill="#111111"/><rect x="7.5" y="13.5" width="1" height="1" fill="#111111"/><rect x="11.5" y="13.5" width="1" height="1" fill="#111111"/><rect x="12.5" y="13.5" width="1" height="1" fill="#111111"/><rect x="18.5" y="13.5" width="1" height="1" fill="#111111"/><rect x="19.5" y="13.5" width="1" height="1" fill="#111111"/><rect x="21.5" y="13.5" width="1" height="1" fill="#111111"/><rect x="24.5" y="13.5" width="1" height="1" fill="#111111"/><rect x="27.5" y="13.5" width="1" height="1" fill="#111111"/><rect x="29.5" y="13.5" width="1" height="1" fill="#111111"/><rect x="5.5" y="14.5" width="1" height="1" fill="#111111"/><rect x="7.5" y="14.5" width="1" height="1" fill="#111111"/><rect x="8.5" y="14.5" width="1" height="1" fill="#111111"/><rect x="10.5" y="14.5" width="1" height="1" fill="#111111"/><rect x="14.5" y="14.5" width="1" height="1" fill="#111111"/><rect x="15.5" y="14.5" width="1" height="1" fill="#111111"/><rect x="17.5" y="14.5" width="1" height="1" fill="#111111"/><rect x="20.5" y="14.5" width="1" height="1" fill="#111111"/><rect x="22.5" y="14.5" width="1" height="1" fill="#111111"/><rect x="23.5" y="14.5" width="1" height="1" fill="#111111"/><rect x="24.5" y="14.5" width="1" height="1" fill="#111111"/><rect x="26.5" y="14.5" width="1" height="1" fill="#111111"/><rect x="28.5" y="14.5" width="1" height="1" fill="#111111"/><rect x="29.5" y="14.5" width="1" height="1" fill="#111111"/><rect x="5.5" y="15.5" width="1" height="1" fill="#111111"/><rect x="8.5" y="15.5" width="1" height="1" fill="#111111"/><rect x="10.5" y="15.5" width="1" height="1" fill="#111111"/><rect x="11.5" y="15.5" width="1" height="1" fill="#111111"/><rect x="15.5" y="15.5" width="1" height="1" fill="#111111"/><rect x="18.5" y="15.5" width="1" height="1" fill="#111111"/><rect x="19.5" y="15.5" width="1" height="1" fill="#111111"/><rect x="20.5" y="15.5" width="1" height="1" fill="#111111"/><rect x="22.5" y="15.5" width="1" height="1" fill="#111111"/><rect x="25.5" y="15.5" width="1" height="1" fill="#111111"/><rect x="26.5" y="15.5" width="1" height="1" fill="#111111"/><rect x="27.5" y="15.5" width="1" height="1" fill="#111111"/><rect x="29.5" y="15.5" width="1" height="1" fill="#111111"/><rect x="5.5" y="16.5" width="1" height="1" fill="#111111"/><rect x="6.5" y="16.5" width="1" height="1" fill="#111111"/><rect x="7.5" y="16.5" width="1" height="1" fill="#111111"/><rect x="10.5" y="16.5" width="1" height="1" fill="#111111"/><rect x="12.5" y="16.5" width="1" height="1" fill="#111111"/><rect x="13.5" y="16.5" width="1" height="1" fill="#111111"/><rect x="14.5" y="16.5" width="1" height="1" fill="#111111"/><rect x="15.5" y="16.5" width="1" height="1" fill="#111111"/><rect x="16.5" y="16.5" width="1" height="1" fill="#111111"/><rect x="21.5" y="16.5" width="1" height="1" fill="#111111"/><rect x="24.5" y="16.5" width="1" height="1" fill="#111111"/><rect x="26.5" y="16.5" width="1" height="1" fill="#111111"/><rect x="5.5" y="17.5" width="1" height="1" fill="#111111"/><rect x="8.5" y="17.5" width="1" height="1" fill="#111111"/><rect x="11.5" y="17.5" width="1" height="1" fill="#111111"/><rect x="12.5" y="17.5" width="1" height="1" fill="#111111"/><rect x="14.5" y="17.5" width="1" height="1" fill="#111111"/><rect x="15.5" y="17.5" width="1" height="1" fill="#111111"/><rect x="16.5" y="17.5" width="1" height="1" fill="#111111"/><rect x="18.5" y="17.5" width="1" height="1" fill="#111111"/><rect x="19.5" y="17.5" width="1" height="1" fill="#111111"/><rect x="20.5" y="17.5" width="1" height="1" fill="#111111"/><rect x="21.5" y="17.5" width="1" height="1" fill="#111111"/><rect x="23.5" y="17.5" width="1" height="1" fill="#111111"/><rect x="24.5" y="17.5" width="1" height="1" fill="#111111"/><rect x="29.5" y="17.5" width="1" height="1" fill="#111111"/><rect x="6.5" y="18.5" width="1" height="1" fill="#111111"/><rect x="7.5" y="18.5" width="1" height="1" fill="#111111"/><rect x="9.5" y="18.5" width="1" height="1" fill="#111111"/><rect x="10.5" y="18.5" width="1" height="1" fill="#111111"/><rect x="12.5" y="18.5" width="1" height="1" fill="#111111"/><rect x="15.5" y="18.5" width="1" height="1" fill="#111111"/><rect x="18.5" y="18.5" width="1" height="1" fill="#111111"/><rect x="20.5" y="18.5" width="1" height="1" fill="#111111"/><rect x="21.5" y="18.5" width="1" height="1" fill="#111111"/><rect x="23.5" y="18.5" width="1" height="1" fill="#111111"/><rect x="24.5" y="18.5" width="1" height="1" fill="#111111"/><rect x="28.5" y="18.5" width="1" height="1" fill="#111111"/><rect x="29.5" y="18.5" width="1" height="1" fill="#111111"/><rect x="5.5" y="19.5" width="1" height="1" fill="#111111"/><rect x="6.5" y="19.5" width="1" height="1" fill="#111111"/><rect x="11.5" y="19.5" width="1" height="1" fill="#111111"/><rect x="14.5" y="19.5" width="1" height="1" fill="#111111"/><rect x="15.5" y="19.5" width="1" height="1" fill="#111111"/><rect x="16.5" y="19.5" width="1" height="1" fill="#111111"/><rect x="20.5" y="19.5" width="1" height="1" fill="#111111"/><rect x="21.5" y="19.5" width="1" height="1" fill="#111111"/><rect x="22.5" y="19.5" width="1" height="1" fill="#111111"/><rect x="23.5" y="19.5" width="1" height="1" fill="#111111"/><rect x="26.5" y="19.5" width="1" height="1" fill="#111111"/><rect x="27.5" y="19.5" width="1" height="1" fill="#111111"/><rect x="29.5" y="19.5" width="1" height="1" fill="#111111"/><rect x="7.5" y="20.5" width="1" height="1" fill="#111111"/><rect x="8.5" y="20.5" width="1" height="1" fill="#111111"/><rect x="9.5" y="20.5" width="1" height="1" fill="#111111"/><rect x="13.5" y="20.5" width="1" height="1" fill="#111111"/><rect x="14.5" y="20.5" width="1" height="1" fill="#111111"/><rect x="15.5" y="20.5" width="1" height="1" fill="#111111"/><rect x="18.5" y="20.5" width="1" height="1" fill="#111111"/><rect x="21.5" y="20.5" width="1" height="1" fill="#111111"/><rect x="22.5" y="20.5" width="1" height="1" fill="#111111"/><rect x="24.5" y="20.5" width="1" height="1" fill="#111111"/><rect x="25.5" y="20.5" width="1" height="1" fill="#111111"/><rect x="26.5" y="20.5" width="1" height="1" fill="#111111"/><rect x="5.5" y="21.5" width="1" height="1" fill="#111111"/><rect x="6.5" y="21.5" width="1" height="1" fill="#111111"/><rect x="7.5" y="21.5" width="1" height="1" fill="#111111"/><rect x="9.5" y="21.5" width="1" height="1" fill="#111111"/><rect x="11.5" y="21.5" width="1" height="1" fill="#111111"/><rect x="12.5" y="21.5" width="1" height="1" fill="#111111"/><rect x="13.5" y="21.5" width="1" height="1" fill="#111111"/><rect x="15.5" y="21.5" width="1" height="1" fill="#111111"/><rect x="16.5" y="21.5" width="1" height="1" fill="#111111"/><rect x="17.5" y="21.5" width="1" height="1" fill="#111111"/><rect x="18.5" y="21.5" width="1" height="1" fill="#111111"/><rect x="21.5" y="21.5" width="1" height="1" fill="#111111"/><rect x="22.5" y="21.5" width="1" height="1" fill="#111111"/><rect x="23.5" y="21.5" width="1" height="1" fill="#111111"/><rect x="24.5" y="21.5" width="1" height="1" fill="#111111"/><rect x="25.5" y="21.5" width="1" height="1" fill="#111111"/><rect x="28.5" y="21.5" width="1" height="1" fill="#111111"/><rect x="13.5" y="22.5" width="1" height="1" fill="#111111"/><rect x="17.5" y="22.5" width="1" height="1" fill="#111111"/><rect x="21.5" y="22.5" width="1" height="1" fill="#111111"/><rect x="25.5" y="22.5" width="1" height="1" fill="#111111"/><rect x="29.5" y="22.5" width="1" height="1" fill="#111111"/><rect x="13.5" y="23.5" width="1" height="1" fill="#111111"/><rect x="14.5" y="23.5" width="1" height="1" fill="#111111"/><rect x="15.5" y="23.5" width="1" height="1" fill="#111111"/><rect x="17.5" y="23.5" width="1" height="1" fill="#111111"/><rect x="18.5" y="23.5" width="1" height="1" fill="#111111"/><rect x="19.5" y="23.5" width="1" height="1" fill="#111111"/><rect x="21.5" y="23.5" width="1" height="1" fill="#111111"/><rect x="23.5" y="23.5" width="1" height="1" fill="#111111"/><rect x="25.5" y="23.5" width="1" height="1" fill="#111111"/><rect x="29.5" y="23.5" width="1" height="1" fill="#111111"/><rect x="16.5" y="24.5" width="1" height="1" fill="#111111"/><rect x="17.5" y="24.5" width="1" height="1" fill="#111111"/><rect x="19.5" y="24.5" width="1" height="1" fill="#111111"/><rect x="20.5" y="24.5" width="1" height="1" fill="#111111"/><rect x="21.5" y="24.5" width="1" height="1" fill="#111111"/><rect x="25.5" y="24.5" width="1" height="1" fill="#111111"/><rect x="28.5" y="24.5" width="1" height="1" fill="#111111"/><rect x="29.5" y="24.5" width="1" height="1" fill="#111111"/><rect x="18.5" y="25.5" width="1" height="1" fill="#111111"/><rect x="19.5" y="25.5" width="1" height="1" fill="#111111"/><rect x="20.5" y="25.5" width="1" height="1" fill="#111111"/><rect x="21.5" y="25.5" width="1" height="1" fill="#111111"/><rect x="22.5" y="25.5" width="1" height="1" fill="#111111"/><rect x="23.5" y="25.5" width="1" height="1" fill="#111111"/><rect x="24.5" y="25.5" width="1" height="1" fill="#111111"/><rect x="25.5" y="25.5" width="1" height="1" fill="#111111"/><rect x="28.5" y="25.5" width="1" height="1" fill="#111111"/><rect x="29.5" y="25.5" width="1" height="1" fill="#111111"/><rect x="14.5" y="26.5" width="1" height="1" fill="#111111"/><rect x="18.5" y="26.5" width="1" height="1" fill="#111111"/><rect x="19.5" y="26.5" width="1" height="1" fill="#111111"/><rect x="22.5" y="26.5" width="1" height="1" fill="#111111"/><rect x="25.5" y="26.5" width="1" height="1" fill="#111111"/><rect x="27.5" y="26.5" width="1" height="1" fill="#111111"/><rect x="28.5" y="26.5" width="1" height="1" fill="#111111"/><rect x="13.5" y="27.5" width="1" height="1" fill="#111111"/><rect x="14.5" y="27.5" width="1" height="1" fill="#111111"/><rect x="15.5" y="27.5" width="1" height="1" fill="#111111"/><rect x="16.5" y="27.5" width="1" height="1" fill="#111111"/><rect x="20.5" y="27.5" width="1" height="1" fill="#111111"/><rect x="21.5" y="27.5" width="1" height="1" fill="#111111"/><rect x="22.5" y="27.5" width="1" height="1" fill="#111111"/><rect x="24.5" y="27.5" width="1" height="1" fill="#111111"/><rect x="25.5" y="27.5" width="1" height="1" fill="#111111"/><rect x="26.5" y="27.5" width="1" height="1" fill="#111111"/><rect x="28.5" y="27.5" width="1" height="1" fill="#111111"/><rect x="29.5" y="27.5" width="1" height="1" fill="#111111"/><rect x="15.5" y="28.5" width="1" height="1" fill="#111111"/><rect x="18.5" y="28.5" width="1" height="1" fill="#111111"/><rect x="20.5" y="28.5" width="1" height="1" fill="#111111"/><rect x="21.5" y="28.5" width="1" height="1" fill="#111111"/><rect x="22.5" y="28.5" width="1" height="1" fill="#111111"/><rect x="23.5" y="28.5" width="1" height="1" fill="#111111"/><rect x="24.5" y="28.5" width="1" height="1" fill="#111111"/><rect x="25.5" y="28.5" width="1" height="1" fill="#111111"/><rect x="13.5" y="29.5" width="1" height="1" fill="#111111"/><rect x="14.5" y="29.5" width="1" height="1" fill="#111111"/><rect x="16.5" y="29.5" width="1" height="1" fill="#111111"/><rect x="17.5" y="29.5" width="1" height="1" fill="#111111"/><rect x="18.5" y="29.5" width="1" height="1" fill="#111111"/><rect x="21.5" y="29.5" width="1" height="1" fill="#111111"/><rect x="23.5" y="29.5" width="1" height="1" fill="#111111"/><rect x="26.5" y="29.5" width="1" height="1" fill="#111111"/><rect x="29.5" y="29.5" width="1" height="1" fill="#111111"/><rect x="5.5" y="5.5" width="7" height="7" fill="#111111"/><rect x="6.5" y="6.5" width="5" height="5" fill="#ffffff"/><rect x="7.5" y="7.5" width="3" height="3" fill="#111111"/><rect x="23.5" y="5.5" width="7" height="7" fill="#111111"/><rect x="24.5" y="6.5" width="5" height="5" fill="#ffffff"/><rect x="25.5" y="7.5" width="3" height="3" fill="#111111"/><rect x="5.5" y="23.5" width="7" height="7" fill="#111111"/><rect x="6.5" y="24.5" width="5" height="5" fill="#ffffff"/><rect x="7.5" y="25.5" width="3" height="3" fill="#111111"/></svg>